<svg width="25" height="26" viewBox="0 0 25 26" fill="none" xmlns="http://www.w3.org/2000/svg">
<path d="M24.1481 10.5759L13.1911 0.495391C12.8349 0.167682 12.3658 -0.00966972 11.8819 0.000407043C11.398 0.0104838 10.9367 0.207209 10.5944 0.549463L0.517153 10.6268L0 11.1439V26H9.71076V16.7306H15.0075V26H24.7183V11.1005L24.1481 10.5759ZM11.9199 1.76563C11.9354 1.76563 11.9258 1.76899 11.9191 1.77556C11.9122 1.76899 11.9043 1.76563 11.9199 1.76563ZM22.9527 24.2344H16.7731V16.7306C16.7731 16.2624 16.5871 15.8133 16.256 15.4822C15.9249 15.1511 15.4758 14.965 15.0075 14.965H9.71076C9.2425 14.965 8.79342 15.1511 8.4623 15.4822C8.13119 15.8133 7.94517 16.2624 7.94517 16.7306V24.2344H1.76559V11.8753L11.9199 1.7979C11.9206 1.79724 11.9206 1.79663 11.9212 1.79597L22.9527 11.8753V24.2344Z" fill="white"/>
</svg>
