<svg width="16" height="15" viewBox="0 0 16 15" fill="none" xmlns="http://www.w3.org/2000/svg">
<path fill-rule="evenodd" clip-rule="evenodd" d="M14.051 14.8596C14.7555 14.8596 15.3265 14.2886 15.3265 13.5842C15.3265 12.8802 14.7562 12.3093 14.0522 12.3087L5.22692 12.3008L15.3265 2.20124C15.8259 1.70188 15.8259 0.89226 15.3265 0.392901C14.8271 -0.106458 14.0175 -0.106458 13.5182 0.392901L3.41858 10.4925L3.41068 1.66721C3.41005 0.963244 2.8392 0.3929 2.13524 0.392901C1.43082 0.392901 0.859785 0.963939 0.859785 1.66835V14.8596L14.051 14.8596Z" fill="white" fill-opacity="0.7"/>
<path fill-rule="evenodd" clip-rule="evenodd" d="M14.051 14.8596C14.7555 14.8596 15.3265 14.2886 15.3265 13.5842C15.3265 12.8802 14.7562 12.3093 14.0522 12.3087L5.22692 12.3008L15.3265 2.20124C15.8259 1.70188 15.8259 0.89226 15.3265 0.392901C14.8271 -0.106458 14.0175 -0.106458 13.5182 0.392901L3.41858 10.4925L3.41068 1.66721C3.41005 0.963244 2.8392 0.3929 2.13524 0.392901C1.43082 0.392901 0.859785 0.963939 0.859785 1.66835V14.8596L14.051 14.8596Z" fill="white" fill-opacity="0.7"/>
</svg>
