<svg width="66" height="66" viewBox="0 0 66 66" fill="none" xmlns="http://www.w3.org/2000/svg">
<path d="M16.4249 54.7493H28.4697C29.3406 54.7483 30.1756 54.4018 30.7914 53.786C31.4072 53.1702 31.7536 52.3352 31.7547 51.4643V22.9947C31.7536 22.1238 31.4072 21.2888 30.7914 20.673C30.1756 20.0572 29.3406 19.7107 28.4697 19.7097H16.4249C15.5539 19.7107 14.719 20.0572 14.1032 20.673C13.4873 21.2888 13.1409 22.1238 13.1399 22.9947V51.4643C13.1409 52.3352 13.4873 53.1702 14.1032 53.786C14.719 54.4018 15.5539 54.7483 16.4249 54.7493ZM17.5198 24.0897H27.3747V50.3693H17.5198V24.0897Z" fill="#A0F1F2"/>
<path d="M55.8443 0H43.7995C42.9286 0.00101429 42.0936 0.347433 41.4778 0.963263C40.862 1.57909 40.5155 2.41405 40.5145 3.28496V51.4644C40.5155 52.3353 40.862 53.1702 41.4778 53.7861C42.0936 54.4019 42.9286 54.7483 43.7995 54.7493H55.8443C56.7153 54.7483 57.5502 54.4019 58.166 53.7861C58.7819 53.1702 59.1283 52.3353 59.1293 51.4644V3.28496C59.1283 2.41405 58.7819 1.57909 58.166 0.963263C57.5502 0.347433 56.7153 0.00101429 55.8443 0ZM54.7493 50.3694H44.8945V4.37995H54.7493V50.3694Z" fill="#A0F1F2"/>
<path d="M4.37995 0H0V65.6992H65.6992V61.3192H4.37995V0Z" fill="#A0F1F2"/>
</svg>
