<svg width="21" height="22" viewBox="0 0 21 22" fill="none" xmlns="http://www.w3.org/2000/svg">
<path d="M10.5 0.5C4.70102 0.5 0 5.20102 0 11C0 16.799 4.70102 21.5 10.5 21.5C16.299 21.5 21 16.799 21 11C21 5.20102 16.299 0.5 10.5 0.5ZM6.95831 19.3854C4.7359 18.4443 2.97769 16.6598 2.06957 14.4237C1.16146 12.1876 1.17764 9.6825 2.11457 7.45831C2.15911 7.35296 2.20609 7.24896 2.25457 7.14571L4.55 9.21176V11.9783L7.92313 15.55H9.625V17.6958L7.56647 19.6171C7.36167 19.5473 7.15894 19.47 6.95831 19.3854ZM16.9347 17.4347C16.0907 18.2811 15.0878 18.9524 13.9834 19.4098C12.8791 19.8672 11.6953 20.1018 10.5 20.1C10.0649 20.1 9.63039 20.0692 9.19966 20.0078L11.025 18.3042V14.15H8.52687L5.95 11.4217V8.58824L2.96187 5.8991C3.95053 4.44287 5.338 3.30249 6.95813 2.61457C8.34447 2.02812 9.85474 1.79509 11.3534 1.9364C12.852 2.07772 14.2921 2.58895 15.5444 3.42421L13.5509 5.98717L14.2286 7.68139L13.7699 8.14011L10.3304 7.45223L8.4 8.9V12.75H16.1L18.3026 15.6868C17.9196 16.323 17.4602 16.91 16.9347 17.4347ZM19.6 11C19.602 12.1195 19.3962 13.2297 18.9931 14.2741L16.8 11.35H9.8V9.6L10.6696 8.94777L14.2301 9.65989L15.8714 8.01861L15.149 6.21283L16.6453 4.28884C16.7433 4.37879 16.8397 4.47095 16.9345 4.56534C17.781 5.40926 18.4523 6.41222 18.9097 7.51653C19.3672 8.62084 19.6018 9.8047 19.6 11Z" fill="#A0F1F2"/>
</svg>
