<svg width="13" height="19" viewBox="0 0 13 19" fill="none" xmlns="http://www.w3.org/2000/svg">
<path d="M11.0907 7.54049V5.45658C11.0907 4.19329 10.5889 2.98175 9.69563 2.08847C8.80236 1.1952 7.59081 0.693359 6.32753 0.693359C5.06425 0.693359 3.8527 1.1952 2.95943 2.08847C2.06615 2.98175 1.56431 4.19329 1.56431 5.45658V7.54049H0.0758057V12.3037C0.0758057 15.7509 2.8803 18.5554 6.32753 18.5554C9.77476 18.5554 12.5793 15.7509 12.5793 12.3037V7.54049H11.0907ZM2.75512 5.45658C2.75512 4.50911 3.13149 3.60046 3.80145 2.9305C4.47141 2.26054 5.38007 1.88416 6.32753 1.88416C7.27499 1.88416 8.18365 2.26054 8.85361 2.9305C9.52357 3.60046 9.89994 4.50911 9.89994 5.45658V7.54049H2.75512V5.45658ZM11.3884 12.3037C11.3884 15.0943 9.11811 17.3646 6.32753 17.3646C3.53695 17.3646 1.26661 15.0943 1.26661 12.3037V8.73129H11.3884V12.3037Z" fill="#2E026E"/>
</svg>
