<svg width="31" height="31" viewBox="0 0 31 31" fill="none" xmlns="http://www.w3.org/2000/svg">
<path fill-rule="evenodd" clip-rule="evenodd" d="M16.0514 5.82185C15.6608 5.43133 15.0277 5.43133 14.6371 5.82185L14.2478 6.21122C13.8575 6.6015 13.8572 7.23418 14.2471 7.6248L20.6764 14.0656H6.11475C5.56246 14.0656 5.11475 14.5133 5.11475 15.0656V15.6229C5.11475 16.1752 5.56246 16.6229 6.11475 16.6229H20.6764L14.2471 23.0637C13.8572 23.4543 13.8575 24.087 14.2478 24.4773L14.6371 24.8667C15.0277 25.2572 15.6608 25.2572 16.0514 24.8667L25.5738 15.3443L16.0514 5.82185Z" fill="black" fill-opacity="0.7"/>
<mask id="mask0_208_727" style="mask-type:alpha" maskUnits="userSpaceOnUse" x="5" y="5" width="21" height="21">
<path fill-rule="evenodd" clip-rule="evenodd" d="M16.0514 5.82185C15.6608 5.43133 15.0277 5.43133 14.6371 5.82185L14.2478 6.21122C13.8575 6.6015 13.8572 7.23418 14.2471 7.6248L20.6764 14.0656H6.11475C5.56246 14.0656 5.11475 14.5133 5.11475 15.0656V15.6229C5.11475 16.1752 5.56246 16.6229 6.11475 16.6229H20.6764L14.2471 23.0637C13.8572 23.4543 13.8575 24.087 14.2478 24.4773L14.6371 24.8667C15.0277 25.2572 15.6608 25.2572 16.0514 24.8667L25.5738 15.3443L16.0514 5.82185Z" fill="white"/>
</mask>
<g mask="url(#mask0_208_727)">
<rect width="30.6885" height="30.6885" fill="#C2D1D9"/>
</g>
</svg>
