<svg width="64" height="67" viewBox="0 0 64 67" fill="none" xmlns="http://www.w3.org/2000/svg">
<path d="M25.3793 0C21.2836 0.00463637 17.357 1.63371 14.4609 4.52982C11.5648 7.42592 9.93569 11.3526 9.93105 15.4483V26.4388C9.93242 28.2848 10.3956 30.1013 11.2784 31.7226L15.0653 38.6651L5.02071 45.1939C3.47699 46.1933 2.20854 47.5638 1.33143 49.1801C0.454315 50.7964 -0.0034502 52.6068 1.95791e-05 54.4458V66.2069H39.7241V61.7931H4.41381V54.4458C4.41175 53.3424 4.68643 52.2561 5.21272 51.2863C5.73901 50.3165 6.50011 49.4942 7.42636 48.8946L20.8967 40.1389L15.1533 29.6091C14.6236 28.6363 14.3457 27.5464 14.3448 26.4388V15.4483C14.3448 12.5217 15.5074 9.71508 17.5768 7.64572C19.6461 5.57635 22.4528 4.41379 25.3793 4.41379C28.3058 4.41379 31.1125 5.57635 33.1819 7.64572C35.2512 9.71508 36.4138 12.5217 36.4138 15.4483V26.4388C36.4129 27.5464 36.135 28.6363 35.6054 29.6091L29.8621 40.1389L39.7241 46.5494V41.2851L35.6934 38.6644L39.4803 31.7218C40.363 30.1007 40.8261 28.2846 40.8276 26.4388V15.4483C40.823 11.3526 39.1939 7.42592 36.2978 4.52982C33.4017 1.63371 29.475 0.00463637 25.3793 0Z" fill="#A0F1F2"/>
<path d="M55.1724 52.9655V44.1379H50.7586V52.9655H41.931V57.3793H50.7586V66.2069H55.1724V57.3793H64V52.9655H55.1724Z" fill="#A0F1F2"/>
</svg>
