<svg width="32" height="33" viewBox="0 0 32 33" fill="none" xmlns="http://www.w3.org/2000/svg">
<path fill-rule="evenodd" clip-rule="evenodd" d="M24.6768 9.32433L24.6272 9.29126C23.6019 8.3156 22.3947 7.85258 21.0057 7.91873L20.9561 7.81951L20.9891 7.80297C22.2459 7.52185 22.9901 7.22419 23.2216 6.89346C23.2877 6.62888 23.205 6.48005 22.9239 6.44697C22.2955 6.52966 21.7002 6.66195 21.1876 6.87692C21.849 6.44697 22.0971 6.14932 21.9483 6.00049C21.3033 6.01702 20.5923 6.34776 19.8647 7.00922C20.1292 6.54619 20.245 6.28161 20.1788 6.24854C19.815 6.48005 19.5174 6.74463 19.2528 7.02575C18.6906 7.65414 18.2441 8.23292 17.8968 8.76209L17.8803 8.79516C17.0038 10.2338 16.3754 11.6725 16.0116 13.1443L15.8793 13.26L15.8463 13.2766C15.3171 12.6151 14.6722 12.0529 13.9115 11.6064C13.0185 11.0111 11.9602 10.4654 10.7365 9.91965C9.41356 9.22511 8.05757 8.66287 6.70157 8.21638C6.68504 9.75428 7.44572 10.9614 8.91747 11.8544V11.871C8.40483 11.871 7.8922 11.9536 7.39611 12.1025C7.49533 13.5246 8.50405 14.5003 10.4058 15.0294L10.3892 15.0625C9.64508 15.0129 9.03322 15.2775 8.55366 15.8232C9.18205 17.0469 10.29 17.6257 11.894 17.5926C11.5798 17.758 11.3318 17.9233 11.1664 18.1218C10.8688 18.436 10.7696 18.7998 10.8688 19.2132C11.216 19.8416 11.8279 20.1227 12.7374 20.0731L12.787 20.1392L12.7705 20.1723C11.1995 21.7929 9.29781 22.5205 7.08191 22.3717L7.04884 22.3882C5.69284 22.3717 4.23763 21.7267 2.66666 20.4369C4.23763 22.7024 6.33777 24.3395 8.934 25.3813C11.894 26.357 14.8706 26.4396 17.8307 25.5963H17.8803C20.7576 24.7695 23.1885 23.0497 25.206 20.47C26.132 19.1305 26.7108 17.8406 26.9423 16.6004C28.4471 16.65 29.522 16.2201 30.2 15.294L30.1835 15.2609C29.6708 15.4429 28.6952 15.3932 27.2565 15.0956V14.9302C28.844 14.7483 29.7866 14.2357 30.0842 13.3923C28.9763 13.8223 27.8849 13.8388 26.81 13.4254C26.6116 11.9371 25.9005 10.5646 24.6768 9.32433" fill="#C2D1D9"/>
<mask id="mask0_205_1569" style="mask-type:alpha" maskUnits="userSpaceOnUse" x="2" y="6" width="29" height="21">
<path fill-rule="evenodd" clip-rule="evenodd" d="M24.6768 9.32433L24.6272 9.29126C23.6019 8.3156 22.3947 7.85258 21.0057 7.91873L20.9561 7.81951L20.9891 7.80297C22.2459 7.52185 22.9901 7.22419 23.2216 6.89346C23.2877 6.62888 23.205 6.48005 22.9239 6.44697C22.2955 6.52966 21.7002 6.66195 21.1876 6.87692C21.849 6.44697 22.0971 6.14932 21.9483 6.00049C21.3033 6.01702 20.5923 6.34776 19.8647 7.00922C20.1292 6.54619 20.245 6.28161 20.1788 6.24854C19.815 6.48005 19.5174 6.74463 19.2528 7.02575C18.6906 7.65414 18.2441 8.23292 17.8968 8.76209L17.8803 8.79516C17.0038 10.2338 16.3754 11.6725 16.0116 13.1443L15.8793 13.26L15.8463 13.2766C15.3171 12.6151 14.6722 12.0529 13.9115 11.6064C13.0185 11.0111 11.9602 10.4654 10.7365 9.91965C9.41356 9.22511 8.05757 8.66287 6.70157 8.21638C6.68504 9.75428 7.44572 10.9614 8.91747 11.8544V11.871C8.40483 11.871 7.8922 11.9536 7.39611 12.1025C7.49533 13.5246 8.50405 14.5003 10.4058 15.0294L10.3892 15.0625C9.64508 15.0129 9.03322 15.2775 8.55366 15.8232C9.18205 17.0469 10.29 17.6257 11.894 17.5926C11.5798 17.758 11.3318 17.9233 11.1664 18.1218C10.8688 18.436 10.7696 18.7998 10.8688 19.2132C11.216 19.8416 11.8279 20.1227 12.7374 20.0731L12.787 20.1392L12.7705 20.1723C11.1995 21.7929 9.29781 22.5205 7.08191 22.3717L7.04884 22.3882C5.69284 22.3717 4.23763 21.7267 2.66666 20.4369C4.23763 22.7024 6.33777 24.3395 8.934 25.3813C11.894 26.357 14.8706 26.4396 17.8307 25.5963H17.8803C20.7576 24.7695 23.1885 23.0497 25.206 20.47C26.132 19.1305 26.7108 17.8406 26.9423 16.6004C28.4471 16.65 29.522 16.2201 30.2 15.294L30.1835 15.2609C29.6708 15.4429 28.6952 15.3932 27.2565 15.0956V14.9302C28.844 14.7483 29.7866 14.2357 30.0842 13.3923C28.9763 13.8223 27.8849 13.8388 26.81 13.4254C26.6116 11.9371 25.9005 10.5646 24.6768 9.32433" fill="white"/>
</mask>
<g mask="url(#mask0_205_1569)">
<rect y="0.666992" width="32" height="32" fill="#2703A5"/>
</g>
</svg>
