<svg width="43" height="44" viewBox="0 0 43 44" fill="none" xmlns="http://www.w3.org/2000/svg">
<path d="M38.5317 42.3213L38.5761 42.2503L43 33.2707L30.0774 23.5788L24.1317 28.0378C21.8894 27.9044 19.7738 26.9535 18.1855 25.3651C16.5971 23.7768 15.6463 21.6612 15.5129 19.4189L19.9719 13.4733L10.2801 0.55078L1.37567 4.93784L1.30049 4.97476L1.22956 5.01925C0.852333 5.25336 0.541305 5.58013 0.32608 5.96845C0.110859 6.35676 -0.00139264 6.7937 7.3371e-06 7.23767L7.23582e-06 9.5547C7.04067e-06 14.0191 0.879344 18.4399 2.58781 22.5645C4.29628 26.6891 6.80043 30.4368 9.95726 33.5936C13.1141 36.7504 16.8618 39.2545 20.9864 40.963C25.111 42.6715 29.5317 43.5508 33.9962 43.5508L36.3133 43.5508C36.7573 43.5522 37.1942 43.44 37.5825 43.2248C37.9708 43.0095 38.2976 42.6985 38.5317 42.3213ZM33.9962 40.2324C17.0804 40.2324 3.31835 26.4704 3.31836 9.5547L3.31836 7.67984L9.27718 4.74455L15.8242 13.4739L12.1793 18.3339L12.1793 18.8869C12.183 22.1971 13.4996 25.3706 15.8402 27.7113C18.1809 30.0519 21.3544 31.3685 24.6646 31.3722L25.2176 31.3722L30.0775 27.7273L38.8063 34.2736L35.8705 40.2324L33.9962 40.2324Z" fill="#A0F1F2"/>
</svg>
