<svg width="33" height="33" viewBox="0 0 33 33" fill="none" xmlns="http://www.w3.org/2000/svg">
<path fill-rule="evenodd" clip-rule="evenodd" d="M25.666 22.0588V14.4174V10.6072C25.666 8.61753 24.0478 7 22.0581 7H10.6072C8.61753 7 7 8.61753 7 10.6072V14.4174V22.0588C7 24.0491 8.61753 25.6667 10.6072 25.6667H22.0588C24.0478 25.6667 25.666 24.0491 25.666 22.0588ZM19.619 16.3323C19.619 18.1442 18.1429 19.6176 16.3323 19.6176C14.5211 19.6176 13.0464 18.1435 13.0484 16.3317C13.049 15.6164 13.2811 14.9561 13.6697 14.4167C14.268 13.5891 15.2377 13.047 16.3343 13.047C17.4303 13.047 18.4007 13.5897 18.9976 14.4173C19.385 14.9567 19.619 15.6171 19.619 16.3323ZM23.5064 12.3136V9.55974V9.1499L23.0946 9.15122L20.3421 9.15982L20.3527 12.3241L23.5064 12.3136ZM16.333 21.4376C19.1483 21.4376 21.4381 19.1464 21.4381 16.3325C21.4381 15.6556 21.3013 15.0084 21.0587 14.4175H23.8462V22.0589C23.8462 23.0465 23.0431 23.8463 22.0575 23.8463H10.6065C9.61964 23.8463 8.81782 23.0465 8.81782 22.0589V14.4175H11.604C11.3634 15.0084 11.2286 15.6556 11.2286 16.3325C11.2286 19.1464 13.5177 21.4376 16.333 21.4376Z" fill="black"/>
<mask id="mask0_205_1567" style="mask-type:alpha" maskUnits="userSpaceOnUse" x="7" y="7" width="19" height="19">
<path fill-rule="evenodd" clip-rule="evenodd" d="M25.666 22.0588V14.4174V10.6072C25.666 8.61753 24.0478 7 22.0581 7H10.6072C8.61753 7 7 8.61753 7 10.6072V14.4174V22.0588C7 24.0491 8.61753 25.6667 10.6072 25.6667H22.0588C24.0478 25.6667 25.666 24.0491 25.666 22.0588ZM19.619 16.3323C19.619 18.1442 18.1429 19.6176 16.3323 19.6176C14.5211 19.6176 13.0464 18.1435 13.0484 16.3317C13.049 15.6164 13.2811 14.9561 13.6697 14.4167C14.268 13.5891 15.2377 13.047 16.3343 13.047C17.4303 13.047 18.4007 13.5897 18.9976 14.4173C19.385 14.9567 19.619 15.6171 19.619 16.3323ZM23.5064 12.3136V9.55974V9.1499L23.0946 9.15122L20.3421 9.15982L20.3527 12.3241L23.5064 12.3136ZM16.333 21.4376C19.1483 21.4376 21.4381 19.1464 21.4381 16.3325C21.4381 15.6556 21.3013 15.0084 21.0587 14.4175H23.8462V22.0589C23.8462 23.0465 23.0431 23.8463 22.0575 23.8463H10.6065C9.61964 23.8463 8.81782 23.0465 8.81782 22.0589V14.4175H11.604C11.3634 15.0084 11.2286 15.6556 11.2286 16.3325C11.2286 19.1464 13.5177 21.4376 16.333 21.4376Z" fill="white"/>
</mask>
<g mask="url(#mask0_205_1567)">
<rect x="0.333344" y="0.333496" width="32" height="32" fill="#2703A5"/>
</g>
</svg>
