<svg width="33" height="33" viewBox="0 0 33 33" fill="none" xmlns="http://www.w3.org/2000/svg">
<path d="M21.0033 16.3408H18.3868C18.3868 20.5211 18.3868 25.6667 18.3868 25.6667H14.5097C14.5097 25.6667 14.5097 20.571 14.5097 16.3408H12.6667V13.0447H14.5097V10.9128C14.5097 9.38589 15.2352 7 18.4225 7L21.2955 7.01101V10.2106C21.2955 10.2106 19.5496 10.2106 19.2102 10.2106C18.8707 10.2106 18.3881 10.3803 18.3881 11.1084V13.0454H21.3421L21.0033 16.3408Z" fill="#C2D1D9"/>
<mask id="mask0_205_1568" style="mask-type:alpha" maskUnits="userSpaceOnUse" x="12" y="7" width="10" height="19">
<path d="M21.0033 16.3408H18.3868C18.3868 20.5211 18.3868 25.6667 18.3868 25.6667H14.5097C14.5097 25.6667 14.5097 20.571 14.5097 16.3408H12.6667V13.0447H14.5097V10.9128C14.5097 9.38589 15.2352 7 18.4225 7L21.2955 7.01101V10.2106C21.2955 10.2106 19.5496 10.2106 19.2102 10.2106C18.8707 10.2106 18.3881 10.3803 18.3881 11.1084V13.0454H21.3421L21.0033 16.3408Z" fill="white"/>
</mask>
<g mask="url(#mask0_205_1568)">
<rect x="0.666656" y="0.333496" width="32" height="32" fill="#2703A5"/>
</g>
</svg>
