<svg width="14" height="20" viewBox="0 0 14 20" fill="none" xmlns="http://www.w3.org/2000/svg">
<path d="M12.3333 7.66667V5.33333C12.3333 3.91885 11.7714 2.56229 10.7712 1.5621C9.77104 0.561903 8.41449 0 7 0C5.58551 0 4.22896 0.561903 3.22876 1.5621C2.22857 2.56229 1.66667 3.91885 1.66667 5.33333V7.66667H0V13C0 16.8598 3.14017 20 7 20C10.8598 20 14 16.8598 14 13V7.66667H12.3333ZM3 5.33333C3 4.27247 3.42143 3.25505 4.17157 2.50491C4.92172 1.75476 5.93913 1.33333 7 1.33333C8.06087 1.33333 9.07828 1.75476 9.82843 2.50491C10.5786 3.25505 11 4.27247 11 5.33333V7.66667H3V5.33333ZM12.6667 13C12.6667 16.1246 10.1246 18.6667 7 18.6667C3.87542 18.6667 1.33333 16.1246 1.33333 13V9H12.6667V13Z" fill="#2703A5"/>
</svg>
