<svg width="169" height="24" viewBox="0 0 169 24" fill="none" xmlns="http://www.w3.org/2000/svg">
<mask id="path-1-inside-1_35_3" fill="white">
<path d="M34.4 20V5.6H36.57L41.55 15.8L46.53 5.6H48.7V20H46.45V10.77L42.03 20H41.07L36.66 10.77V20H34.4Z"/>
<path d="M55.0094 20V14.1L50.1094 5.6H52.9194L56.2294 11.34L59.5294 5.6H62.3394L57.4494 14.1V20H55.0094Z"/>
<path d="M62.3359 22.44V20.55H75.5359V22.44H62.3359Z"/>
<path d="M76.9391 20V5.6H81.5291C81.6491 5.6 81.8857 5.60333 82.2391 5.61C82.5991 5.61667 82.9457 5.64 83.2791 5.68C84.4191 5.82667 85.3824 6.23333 86.1691 6.9C86.9624 7.56 87.5624 8.40333 87.9691 9.43C88.3757 10.4567 88.5791 11.58 88.5791 12.8C88.5791 14.02 88.3757 15.1433 87.9691 16.17C87.5624 17.1967 86.9624 18.0433 86.1691 18.71C85.3824 19.37 84.4191 19.7733 83.2791 19.92C82.9524 19.96 82.6091 19.9833 82.2491 19.99C81.8891 19.9967 81.6491 20 81.5291 20H76.9391ZM79.3891 17.73H81.5291C81.7291 17.73 81.9824 17.7233 82.2891 17.71C82.6024 17.6967 82.8791 17.6667 83.1191 17.62C83.7991 17.4933 84.3524 17.19 84.7791 16.71C85.2057 16.23 85.5191 15.6467 85.7191 14.96C85.9257 14.2733 86.0291 13.5533 86.0291 12.8C86.0291 12.02 85.9257 11.2867 85.7191 10.6C85.5124 9.91333 85.1924 9.33667 84.7591 8.87C84.3324 8.40333 83.7857 8.10667 83.1191 7.98C82.8791 7.92667 82.6024 7.89667 82.2891 7.89C81.9824 7.87667 81.7291 7.87 81.5291 7.87H79.3891V17.73Z"/>
<path d="M90.943 20V5.6H100.243V7.86H93.353V11.41H99.043V13.67H93.353V17.74H100.243V20H90.943Z"/>
<path d="M105.882 20L101.342 5.6H103.822L107.622 17.66L111.472 5.6H113.952L109.412 20H105.882Z"/>
<path d="M122.919 20V7.86H118.259V5.6H129.989V7.86H125.329V20H122.919Z"/>
<path d="M134.756 20.3C133.676 20.3 132.733 20.0567 131.926 19.57C131.119 19.0833 130.493 18.4133 130.046 17.56C129.606 16.7 129.386 15.7133 129.386 14.6C129.386 13.4667 129.613 12.4733 130.066 11.62C130.519 10.7667 131.149 10.1 131.956 9.62C132.763 9.14 133.696 8.9 134.756 8.9C135.843 8.9 136.789 9.14333 137.596 9.63C138.403 10.1167 139.029 10.79 139.476 11.65C139.923 12.5033 140.146 13.4867 140.146 14.6C140.146 15.72 139.919 16.71 139.466 17.57C139.019 18.4233 138.393 19.0933 137.586 19.58C136.779 20.06 135.836 20.3 134.756 20.3ZM134.756 18.04C135.716 18.04 136.429 17.72 136.896 17.08C137.363 16.44 137.596 15.6133 137.596 14.6C137.596 13.5533 137.359 12.72 136.886 12.1C136.413 11.4733 135.703 11.16 134.756 11.16C134.109 11.16 133.576 11.3067 133.156 11.6C132.743 11.8867 132.436 12.29 132.236 12.81C132.036 13.3233 131.936 13.92 131.936 14.6C131.936 15.6467 132.173 16.4833 132.646 17.11C133.126 17.73 133.829 18.04 134.756 18.04Z"/>
<path d="M147.119 20.3C146.039 20.3 145.096 20.0567 144.289 19.57C143.483 19.0833 142.856 18.4133 142.409 17.56C141.969 16.7 141.749 15.7133 141.749 14.6C141.749 13.4667 141.976 12.4733 142.429 11.62C142.883 10.7667 143.513 10.1 144.319 9.62C145.126 9.14 146.059 8.9 147.119 8.9C148.206 8.9 149.153 9.14333 149.959 9.63C150.766 10.1167 151.393 10.79 151.839 11.65C152.286 12.5033 152.509 13.4867 152.509 14.6C152.509 15.72 152.283 16.71 151.829 17.57C151.383 18.4233 150.756 19.0933 149.949 19.58C149.143 20.06 148.199 20.3 147.119 20.3ZM147.119 18.04C148.079 18.04 148.793 17.72 149.259 17.08C149.726 16.44 149.959 15.6133 149.959 14.6C149.959 13.5533 149.723 12.72 149.249 12.1C148.776 11.4733 148.066 11.16 147.119 11.16C146.473 11.16 145.939 11.3067 145.519 11.6C145.106 11.8867 144.799 12.29 144.599 12.81C144.399 13.3233 144.299 13.92 144.299 14.6C144.299 15.6467 144.536 16.4833 145.009 17.11C145.489 17.73 146.193 18.04 147.119 18.04Z"/>
<path d="M154.913 20V5.3H157.322V20H154.913Z"/>
<path d="M164.488 20.3C163.155 20.3 162.071 20 161.238 19.4C160.405 18.8 159.898 17.9567 159.718 16.87L162.178 16.49C162.305 17.0233 162.585 17.4433 163.018 17.75C163.451 18.0567 163.998 18.21 164.658 18.21C165.238 18.21 165.685 18.0967 165.998 17.87C166.318 17.6367 166.478 17.32 166.478 16.92C166.478 16.6733 166.418 16.4767 166.298 16.33C166.185 16.1767 165.931 16.03 165.538 15.89C165.145 15.75 164.541 15.5733 163.728 15.36C162.821 15.12 162.101 14.8633 161.568 14.59C161.035 14.31 160.651 13.98 160.418 13.6C160.185 13.22 160.068 12.76 160.068 12.22C160.068 11.5467 160.245 10.96 160.598 10.46C160.951 9.96 161.445 9.57667 162.078 9.31C162.711 9.03667 163.458 8.9 164.318 8.9C165.158 8.9 165.901 9.03 166.548 9.29C167.201 9.55 167.728 9.92 168.128 10.4C168.528 10.88 168.775 11.4433 168.868 12.09L166.408 12.53C166.348 12.07 166.138 11.7067 165.778 11.44C165.425 11.1733 164.951 11.0233 164.358 10.99C163.791 10.9567 163.335 11.0433 162.988 11.25C162.641 11.45 162.468 11.7333 162.468 12.1C162.468 12.3067 162.538 12.4833 162.678 12.63C162.818 12.7767 163.098 12.9233 163.518 13.07C163.945 13.2167 164.578 13.3967 165.418 13.61C166.278 13.83 166.965 14.0833 167.478 14.37C167.998 14.65 168.371 14.9867 168.598 15.38C168.831 15.7733 168.948 16.25 168.948 16.81C168.948 17.8967 168.551 18.75 167.758 19.37C166.971 19.99 165.881 20.3 164.488 20.3Z"/>
<path d="M0 12C0 5.37258 5.37258 0 12 0C18.6274 0 24 5.37258 24 12C24 18.6274 18.6274 24 12 24C5.37258 24 0 18.6274 0 12Z"/>
<path d="M0 0H24V24H0V0Z"/>
</mask>
<path d="M34.4 20V5.6H36.57L41.55 15.8L46.53 5.6H48.7V20H46.45V10.77L42.03 20H41.07L36.66 10.77V20H34.4Z" fill="#C7FFBC"/>
<path d="M55.0094 20V14.1L50.1094 5.6H52.9194L56.2294 11.34L59.5294 5.6H62.3394L57.4494 14.1V20H55.0094Z" fill="#C7FFBC"/>
<path d="M62.3359 22.44V20.55H75.5359V22.44H62.3359Z" fill="#C7FFBC"/>
<path d="M76.9391 20V5.6H81.5291C81.6491 5.6 81.8857 5.60333 82.2391 5.61C82.5991 5.61667 82.9457 5.64 83.2791 5.68C84.4191 5.82667 85.3824 6.23333 86.1691 6.9C86.9624 7.56 87.5624 8.40333 87.9691 9.43C88.3757 10.4567 88.5791 11.58 88.5791 12.8C88.5791 14.02 88.3757 15.1433 87.9691 16.17C87.5624 17.1967 86.9624 18.0433 86.1691 18.71C85.3824 19.37 84.4191 19.7733 83.2791 19.92C82.9524 19.96 82.6091 19.9833 82.2491 19.99C81.8891 19.9967 81.6491 20 81.5291 20H76.9391ZM79.3891 17.73H81.5291C81.7291 17.73 81.9824 17.7233 82.2891 17.71C82.6024 17.6967 82.8791 17.6667 83.1191 17.62C83.7991 17.4933 84.3524 17.19 84.7791 16.71C85.2057 16.23 85.5191 15.6467 85.7191 14.96C85.9257 14.2733 86.0291 13.5533 86.0291 12.8C86.0291 12.02 85.9257 11.2867 85.7191 10.6C85.5124 9.91333 85.1924 9.33667 84.7591 8.87C84.3324 8.40333 83.7857 8.10667 83.1191 7.98C82.8791 7.92667 82.6024 7.89667 82.2891 7.89C81.9824 7.87667 81.7291 7.87 81.5291 7.87H79.3891V17.73Z" fill="#C7FFBC"/>
<path d="M90.943 20V5.6H100.243V7.86H93.353V11.41H99.043V13.67H93.353V17.74H100.243V20H90.943Z" fill="#C7FFBC"/>
<path d="M105.882 20L101.342 5.6H103.822L107.622 17.66L111.472 5.6H113.952L109.412 20H105.882Z" fill="#C7FFBC"/>
<path d="M122.919 20V7.86H118.259V5.6H129.989V7.86H125.329V20H122.919Z" fill="#C7FFBC"/>
<path d="M134.756 20.3C133.676 20.3 132.733 20.0567 131.926 19.57C131.119 19.0833 130.493 18.4133 130.046 17.56C129.606 16.7 129.386 15.7133 129.386 14.6C129.386 13.4667 129.613 12.4733 130.066 11.62C130.519 10.7667 131.149 10.1 131.956 9.62C132.763 9.14 133.696 8.9 134.756 8.9C135.843 8.9 136.789 9.14333 137.596 9.63C138.403 10.1167 139.029 10.79 139.476 11.65C139.923 12.5033 140.146 13.4867 140.146 14.6C140.146 15.72 139.919 16.71 139.466 17.57C139.019 18.4233 138.393 19.0933 137.586 19.58C136.779 20.06 135.836 20.3 134.756 20.3ZM134.756 18.04C135.716 18.04 136.429 17.72 136.896 17.08C137.363 16.44 137.596 15.6133 137.596 14.6C137.596 13.5533 137.359 12.72 136.886 12.1C136.413 11.4733 135.703 11.16 134.756 11.16C134.109 11.16 133.576 11.3067 133.156 11.6C132.743 11.8867 132.436 12.29 132.236 12.81C132.036 13.3233 131.936 13.92 131.936 14.6C131.936 15.6467 132.173 16.4833 132.646 17.11C133.126 17.73 133.829 18.04 134.756 18.04Z" fill="#C7FFBC"/>
<path d="M147.119 20.3C146.039 20.3 145.096 20.0567 144.289 19.57C143.483 19.0833 142.856 18.4133 142.409 17.56C141.969 16.7 141.749 15.7133 141.749 14.6C141.749 13.4667 141.976 12.4733 142.429 11.62C142.883 10.7667 143.513 10.1 144.319 9.62C145.126 9.14 146.059 8.9 147.119 8.9C148.206 8.9 149.153 9.14333 149.959 9.63C150.766 10.1167 151.393 10.79 151.839 11.65C152.286 12.5033 152.509 13.4867 152.509 14.6C152.509 15.72 152.283 16.71 151.829 17.57C151.383 18.4233 150.756 19.0933 149.949 19.58C149.143 20.06 148.199 20.3 147.119 20.3ZM147.119 18.04C148.079 18.04 148.793 17.72 149.259 17.08C149.726 16.44 149.959 15.6133 149.959 14.6C149.959 13.5533 149.723 12.72 149.249 12.1C148.776 11.4733 148.066 11.16 147.119 11.16C146.473 11.16 145.939 11.3067 145.519 11.6C145.106 11.8867 144.799 12.29 144.599 12.81C144.399 13.3233 144.299 13.92 144.299 14.6C144.299 15.6467 144.536 16.4833 145.009 17.11C145.489 17.73 146.193 18.04 147.119 18.04Z" fill="#C7FFBC"/>
<path d="M154.913 20V5.3H157.322V20H154.913Z" fill="#C7FFBC"/>
<path d="M164.488 20.3C163.155 20.3 162.071 20 161.238 19.4C160.405 18.8 159.898 17.9567 159.718 16.87L162.178 16.49C162.305 17.0233 162.585 17.4433 163.018 17.75C163.451 18.0567 163.998 18.21 164.658 18.21C165.238 18.21 165.685 18.0967 165.998 17.87C166.318 17.6367 166.478 17.32 166.478 16.92C166.478 16.6733 166.418 16.4767 166.298 16.33C166.185 16.1767 165.931 16.03 165.538 15.89C165.145 15.75 164.541 15.5733 163.728 15.36C162.821 15.12 162.101 14.8633 161.568 14.59C161.035 14.31 160.651 13.98 160.418 13.6C160.185 13.22 160.068 12.76 160.068 12.22C160.068 11.5467 160.245 10.96 160.598 10.46C160.951 9.96 161.445 9.57667 162.078 9.31C162.711 9.03667 163.458 8.9 164.318 8.9C165.158 8.9 165.901 9.03 166.548 9.29C167.201 9.55 167.728 9.92 168.128 10.4C168.528 10.88 168.775 11.4433 168.868 12.09L166.408 12.53C166.348 12.07 166.138 11.7067 165.778 11.44C165.425 11.1733 164.951 11.0233 164.358 10.99C163.791 10.9567 163.335 11.0433 162.988 11.25C162.641 11.45 162.468 11.7333 162.468 12.1C162.468 12.3067 162.538 12.4833 162.678 12.63C162.818 12.7767 163.098 12.9233 163.518 13.07C163.945 13.2167 164.578 13.3967 165.418 13.61C166.278 13.83 166.965 14.0833 167.478 14.37C167.998 14.65 168.371 14.9867 168.598 15.38C168.831 15.7733 168.948 16.25 168.948 16.81C168.948 17.8967 168.551 18.75 167.758 19.37C166.971 19.99 165.881 20.3 164.488 20.3Z" fill="#C7FFBC"/>
<path d="M34.4 20V5.6H36.57L41.55 15.8L46.53 5.6H48.7V20H46.45V10.77L42.03 20H41.07L36.66 10.77V20H34.4Z" stroke="#C7FFBC" stroke-width="2" mask="url(#path-1-inside-1_35_3)"/>
<path d="M55.0094 20V14.1L50.1094 5.6H52.9194L56.2294 11.34L59.5294 5.6H62.3394L57.4494 14.1V20H55.0094Z" stroke="#C7FFBC" stroke-width="2" mask="url(#path-1-inside-1_35_3)"/>
<path d="M62.3359 22.44V20.55H75.5359V22.44H62.3359Z" stroke="#C7FFBC" stroke-width="2" mask="url(#path-1-inside-1_35_3)"/>
<path d="M76.9391 20V5.6H81.5291C81.6491 5.6 81.8857 5.60333 82.2391 5.61C82.5991 5.61667 82.9457 5.64 83.2791 5.68C84.4191 5.82667 85.3824 6.23333 86.1691 6.9C86.9624 7.56 87.5624 8.40333 87.9691 9.43C88.3757 10.4567 88.5791 11.58 88.5791 12.8C88.5791 14.02 88.3757 15.1433 87.9691 16.17C87.5624 17.1967 86.9624 18.0433 86.1691 18.71C85.3824 19.37 84.4191 19.7733 83.2791 19.92C82.9524 19.96 82.6091 19.9833 82.2491 19.99C81.8891 19.9967 81.6491 20 81.5291 20H76.9391ZM79.3891 17.73H81.5291C81.7291 17.73 81.9824 17.7233 82.2891 17.71C82.6024 17.6967 82.8791 17.6667 83.1191 17.62C83.7991 17.4933 84.3524 17.19 84.7791 16.71C85.2057 16.23 85.5191 15.6467 85.7191 14.96C85.9257 14.2733 86.0291 13.5533 86.0291 12.8C86.0291 12.02 85.9257 11.2867 85.7191 10.6C85.5124 9.91333 85.1924 9.33667 84.7591 8.87C84.3324 8.40333 83.7857 8.10667 83.1191 7.98C82.8791 7.92667 82.6024 7.89667 82.2891 7.89C81.9824 7.87667 81.7291 7.87 81.5291 7.87H79.3891V17.73Z" stroke="#C7FFBC" stroke-width="2" mask="url(#path-1-inside-1_35_3)"/>
<path d="M90.943 20V5.6H100.243V7.86H93.353V11.41H99.043V13.67H93.353V17.74H100.243V20H90.943Z" stroke="#C7FFBC" stroke-width="2" mask="url(#path-1-inside-1_35_3)"/>
<path d="M105.882 20L101.342 5.6H103.822L107.622 17.66L111.472 5.6H113.952L109.412 20H105.882Z" stroke="#C7FFBC" stroke-width="2" mask="url(#path-1-inside-1_35_3)"/>
<path d="M122.919 20V7.86H118.259V5.6H129.989V7.86H125.329V20H122.919Z" stroke="#C7FFBC" stroke-width="2" mask="url(#path-1-inside-1_35_3)"/>
<path d="M134.756 20.3C133.676 20.3 132.733 20.0567 131.926 19.57C131.119 19.0833 130.493 18.4133 130.046 17.56C129.606 16.7 129.386 15.7133 129.386 14.6C129.386 13.4667 129.613 12.4733 130.066 11.62C130.519 10.7667 131.149 10.1 131.956 9.62C132.763 9.14 133.696 8.9 134.756 8.9C135.843 8.9 136.789 9.14333 137.596 9.63C138.403 10.1167 139.029 10.79 139.476 11.65C139.923 12.5033 140.146 13.4867 140.146 14.6C140.146 15.72 139.919 16.71 139.466 17.57C139.019 18.4233 138.393 19.0933 137.586 19.58C136.779 20.06 135.836 20.3 134.756 20.3ZM134.756 18.04C135.716 18.04 136.429 17.72 136.896 17.08C137.363 16.44 137.596 15.6133 137.596 14.6C137.596 13.5533 137.359 12.72 136.886 12.1C136.413 11.4733 135.703 11.16 134.756 11.16C134.109 11.16 133.576 11.3067 133.156 11.6C132.743 11.8867 132.436 12.29 132.236 12.81C132.036 13.3233 131.936 13.92 131.936 14.6C131.936 15.6467 132.173 16.4833 132.646 17.11C133.126 17.73 133.829 18.04 134.756 18.04Z" stroke="#C7FFBC" stroke-width="2" mask="url(#path-1-inside-1_35_3)"/>
<path d="M147.119 20.3C146.039 20.3 145.096 20.0567 144.289 19.57C143.483 19.0833 142.856 18.4133 142.409 17.56C141.969 16.7 141.749 15.7133 141.749 14.6C141.749 13.4667 141.976 12.4733 142.429 11.62C142.883 10.7667 143.513 10.1 144.319 9.62C145.126 9.14 146.059 8.9 147.119 8.9C148.206 8.9 149.153 9.14333 149.959 9.63C150.766 10.1167 151.393 10.79 151.839 11.65C152.286 12.5033 152.509 13.4867 152.509 14.6C152.509 15.72 152.283 16.71 151.829 17.57C151.383 18.4233 150.756 19.0933 149.949 19.58C149.143 20.06 148.199 20.3 147.119 20.3ZM147.119 18.04C148.079 18.04 148.793 17.72 149.259 17.08C149.726 16.44 149.959 15.6133 149.959 14.6C149.959 13.5533 149.723 12.72 149.249 12.1C148.776 11.4733 148.066 11.16 147.119 11.16C146.473 11.16 145.939 11.3067 145.519 11.6C145.106 11.8867 144.799 12.29 144.599 12.81C144.399 13.3233 144.299 13.92 144.299 14.6C144.299 15.6467 144.536 16.4833 145.009 17.11C145.489 17.73 146.193 18.04 147.119 18.04Z" stroke="#C7FFBC" stroke-width="2" mask="url(#path-1-inside-1_35_3)"/>
<path d="M154.913 20V5.3H157.322V20H154.913Z" stroke="#C7FFBC" stroke-width="2" mask="url(#path-1-inside-1_35_3)"/>
<path d="M164.488 20.3C163.155 20.3 162.071 20 161.238 19.4C160.405 18.8 159.898 17.9567 159.718 16.87L162.178 16.49C162.305 17.0233 162.585 17.4433 163.018 17.75C163.451 18.0567 163.998 18.21 164.658 18.21C165.238 18.21 165.685 18.0967 165.998 17.87C166.318 17.6367 166.478 17.32 166.478 16.92C166.478 16.6733 166.418 16.4767 166.298 16.33C166.185 16.1767 165.931 16.03 165.538 15.89C165.145 15.75 164.541 15.5733 163.728 15.36C162.821 15.12 162.101 14.8633 161.568 14.59C161.035 14.31 160.651 13.98 160.418 13.6C160.185 13.22 160.068 12.76 160.068 12.22C160.068 11.5467 160.245 10.96 160.598 10.46C160.951 9.96 161.445 9.57667 162.078 9.31C162.711 9.03667 163.458 8.9 164.318 8.9C165.158 8.9 165.901 9.03 166.548 9.29C167.201 9.55 167.728 9.92 168.128 10.4C168.528 10.88 168.775 11.4433 168.868 12.09L166.408 12.53C166.348 12.07 166.138 11.7067 165.778 11.44C165.425 11.1733 164.951 11.0233 164.358 10.99C163.791 10.9567 163.335 11.0433 162.988 11.25C162.641 11.45 162.468 11.7333 162.468 12.1C162.468 12.3067 162.538 12.4833 162.678 12.63C162.818 12.7767 163.098 12.9233 163.518 13.07C163.945 13.2167 164.578 13.3967 165.418 13.61C166.278 13.83 166.965 14.0833 167.478 14.37C167.998 14.65 168.371 14.9867 168.598 15.38C168.831 15.7733 168.948 16.25 168.948 16.81C168.948 17.8967 168.551 18.75 167.758 19.37C166.971 19.99 165.881 20.3 164.488 20.3Z" stroke="#C7FFBC" stroke-width="2" mask="url(#path-1-inside-1_35_3)"/>
<path d="M0 12C0 5.37258 5.37258 0 12 0C18.6274 0 24 5.37258 24 12C24 18.6274 18.6274 24 12 24C5.37258 24 0 18.6274 0 12Z" stroke="#C7FFBC" stroke-width="2" mask="url(#path-1-inside-1_35_3)"/>
<path d="M0 0H24V24H0V0Z" stroke="#C7FFBC" stroke-width="2" mask="url(#path-1-inside-1_35_3)"/>
</svg>
