<svg width="13" height="17" viewBox="0 0 13 17" fill="none" xmlns="http://www.w3.org/2000/svg">
<path d="M11.7141 11.6045L9.14158 9.92807L10.1115 8.14541C10.3375 7.72911 10.4562 7.26271 10.4565 6.7887V3.96667C10.4565 2.91464 10.0397 1.9057 9.29768 1.16181C8.55569 0.417915 7.54933 0 6.5 0C5.45067 0 4.44431 0.417915 3.70232 1.16181C2.96033 1.9057 2.54348 2.91464 2.54348 3.96667V6.7887C2.54383 7.26272 2.66246 7.72913 2.88855 8.14544L3.85842 9.92807L1.28587 11.6045C0.890506 11.8611 0.565638 12.213 0.340997 12.628C0.116356 13.043 -0.000883645 13.5079 5.01448e-06 13.9801V17H13V13.9801C13.0009 13.5079 12.8836 13.043 12.659 12.628C12.4344 12.213 12.1095 11.8611 11.7141 11.6045ZM11.8696 15.8667H1.13044V13.9801C1.12991 13.6968 1.20026 13.4178 1.33505 13.1688C1.46984 12.9198 1.66477 12.7087 1.902 12.5547L5.35194 10.3065L3.88096 7.60275C3.74531 7.35296 3.67413 7.07312 3.67392 6.7887V3.96667C3.67392 3.21522 3.97166 2.49455 4.50166 1.9632C5.03165 1.43184 5.75048 1.13333 6.5 1.13333C7.24952 1.13333 7.96835 1.43184 8.49834 1.9632C9.02834 2.49455 9.32609 3.21522 9.32609 3.96667V6.7887C9.32587 7.07312 9.25469 7.35296 9.11904 7.60275L7.6481 10.3065L11.0981 12.5547C11.3353 12.7087 11.5302 12.9198 11.665 13.1688C11.7998 13.4179 11.8701 13.6968 11.8696 13.9801V15.8667Z" fill="#2703A5"/>
</svg>
