<svg width="25" height="31" viewBox="0 0 25 31" fill="none" xmlns="http://www.w3.org/2000/svg">
<mask id="mask0_0_1" style="mask-type:alpha" maskUnits="userSpaceOnUse" x="0" y="0" width="25" height="31">
<path fill-rule="evenodd" clip-rule="evenodd" d="M24.025 13.3472V26.6944C24.025 28.8998 22.2262 30.6986 20.0208 30.6986H4.00417C1.79883 30.6986 0 28.8998 0 26.6944V13.3472C0 11.1419 1.79883 9.34306 4.00417 9.34306V8.00833C4.00417 3.58735 7.59152 0 12.0125 0C16.4335 0 20.0208 3.58735 20.0208 8.00833V9.34306C22.2262 9.34306 24.025 11.1419 24.025 13.3472ZM20.0208 12.0125H17.3514V12.0122H17.4849V8.00801C17.4849 4.98848 15.032 2.53564 12.0125 2.53564C8.99297 2.53564 6.54013 4.98848 6.54013 8.00801V12.0122H6.67362V12.0125H4.00417C3.27312 12.0125 2.66945 12.6162 2.66945 13.3472V26.6944C2.66945 27.4255 3.27312 28.0292 4.00417 28.0292H20.0208C20.7519 28.0292 21.3556 27.4255 21.3556 26.6944V13.3472C21.3556 12.6162 20.7519 12.0125 20.0208 12.0125ZM6.67362 12.0122H17.3514V8.00832C17.3514 5.06164 14.9592 2.66943 12.0125 2.66943C9.06582 2.66943 6.67362 5.06164 6.67362 8.00832V12.0122ZM12.0125 5.20508C13.5577 5.20508 14.8154 6.46277 14.8154 8.00799V9.34272H9.20958V8.00799C9.20958 6.46277 10.4673 5.20508 12.0125 5.20508ZM9.34306 20.0205C9.34306 21.4887 10.5443 22.69 12.0125 22.69C13.4807 22.69 14.682 21.4887 14.682 20.0205C14.682 18.5523 13.4807 17.3511 12.0125 17.3511C10.5443 17.3511 9.34306 18.5523 9.34306 20.0205Z" fill="white"/>
</mask>
<g mask="url(#mask0_0_1)">
<rect x="-4.00415" y="-1.33496" width="32.0333" height="32.0333" fill="#A0F1F2"/>
</g>
</svg>
