<svg width="60" height="33" viewBox="0 0 60 33" fill="none" xmlns="http://www.w3.org/2000/svg">
<rect y="2.2251" width="56.0583" height="26.6944" rx="13.3472" fill="white"/>
<path fill-rule="evenodd" clip-rule="evenodd" d="M43.3585 30.6986C51.4671 30.6986 58.0404 24.1253 58.0404 16.0167C58.0404 7.90805 51.4671 1.33472 43.3585 1.33472C35.2498 1.33472 28.6765 7.90805 28.6765 16.0167C28.6765 24.1253 35.2498 30.6986 43.3585 30.6986Z" fill="#A0F1F2"/>
<path fill-rule="evenodd" clip-rule="evenodd" d="M27.3418 16.0167C27.3418 24.8624 34.5127 32.0333 43.3585 32.0333C52.2042 32.0333 59.3751 24.8624 59.3751 16.0167C59.3751 7.17091 52.2042 0 43.3585 0C34.5127 0 27.3418 7.17091 27.3418 16.0167ZM58.0404 16.0167C58.0404 24.1253 51.4671 30.6986 43.3585 30.6986C35.2498 30.6986 28.6765 24.1253 28.6765 16.0167C28.6765 7.90805 35.2498 1.33472 43.3585 1.33472C51.4671 1.33472 58.0404 7.90805 58.0404 16.0167Z" fill="#A0F1F2"/>
</svg>
