<svg width="61" height="33" viewBox="0 0 61 33" fill="none" xmlns="http://www.w3.org/2000/svg">
<rect x="4" y="2.2251" width="56.0583" height="26.6944" rx="13.3472" fill="white"/>
<path fill-rule="evenodd" clip-rule="evenodd" d="M16.0167 30.6986C24.1253 30.6986 30.6986 24.1253 30.6986 16.0167C30.6986 7.90805 24.1253 1.33472 16.0167 1.33472C7.90805 1.33472 1.33472 7.90805 1.33472 16.0167C1.33472 24.1253 7.90805 30.6986 16.0167 30.6986Z" fill="#A0F1F2"/>
<path fill-rule="evenodd" clip-rule="evenodd" d="M0 16.0167C0 24.8624 7.17091 32.0333 16.0167 32.0333C24.8624 32.0333 32.0333 24.8624 32.0333 16.0167C32.0333 7.17091 24.8624 0 16.0167 0C7.17091 0 0 7.17091 0 16.0167ZM30.6986 16.0167C30.6986 24.1253 24.1253 30.6986 16.0167 30.6986C7.90805 30.6986 1.33472 24.1253 1.33472 16.0167C1.33472 7.90805 7.90805 1.33472 16.0167 1.33472C24.1253 1.33472 30.6986 7.90805 30.6986 16.0167Z" fill="#A0F1F2"/>
</svg>
