<svg xmlns="http://www.w3.org/2000/svg" width="599.656" height="200" viewBox="0 0 599.656 200">
  <g id="Grupo_7" data-name="Grupo 7" transform="translate(-292 -612)">
    <line id="Linha_5" data-name="Linha 5" y1="61.864" x2="61.864" transform="translate(328.017 709.881)" fill="none" stroke="#21e7b8" stroke-width="13"/>
    <path id="Caminho_1" data-name="Caminho 1" d="M20.636,1a17.839,17.839,0,0,1-9.648-2.513A16.584,16.584,0,0,1,4.824-8.342,21.638,21.638,0,0,1,2.68-18.09a21.111,21.111,0,0,1,2.228-9.816,16.859,16.859,0,0,1,6.281-6.8,18,18,0,0,1,9.581-2.479,17.465,17.465,0,0,1,10.737,3.233,14.385,14.385,0,0,1,5.544,8.827l-9.112,2.412a8.31,8.31,0,0,0-2.8-4.389,7.079,7.079,0,0,0-4.506-1.575,7.628,7.628,0,0,0-4.724,1.39A8.054,8.054,0,0,0,13.2-23.5a15.757,15.757,0,0,0-.871,5.41,12.88,12.88,0,0,0,2.094,7.655A7.143,7.143,0,0,0,20.636-7.5a6.923,6.923,0,0,0,4.69-1.407,8.518,8.518,0,0,0,2.412-4.02l9.313,1.943a15.5,15.5,0,0,1-5.829,8.877A17.528,17.528,0,0,1,20.636,1ZM59.027,1a18.417,18.417,0,0,1-9.581-2.446,16.975,16.975,0,0,1-6.415-6.75,20.723,20.723,0,0,1-2.295-9.9,20.505,20.505,0,0,1,2.345-9.966,17.091,17.091,0,0,1,6.465-6.717,18.417,18.417,0,0,1,9.48-2.412,18.506,18.506,0,0,1,9.6,2.445,17.057,17.057,0,0,1,6.449,6.75,20.6,20.6,0,0,1,2.312,9.9,20.553,20.553,0,0,1-2.328,9.933,17.056,17.056,0,0,1-6.465,6.734A18.539,18.539,0,0,1,59.027,1Zm0-8.509q4.388,0,6.549-2.965a12.619,12.619,0,0,0,2.161-7.621A12.4,12.4,0,0,0,65.543-25.8a7.678,7.678,0,0,0-6.516-2.881,8.323,8.323,0,0,0-4.891,1.34,7.888,7.888,0,0,0-2.831,3.719,15.25,15.25,0,0,0-.921,5.528,12.388,12.388,0,0,0,2.194,7.722A7.623,7.623,0,0,0,59.027-7.5ZM102.51,1A15.423,15.423,0,0,1,93.5-1.508a15.4,15.4,0,0,1-5.444-6.834,24.831,24.831,0,0,1-1.826-9.748,25.033,25.033,0,0,1,1.809-9.749,15.562,15.562,0,0,1,5.326-6.834,14.542,14.542,0,0,1,8.676-2.512,16.347,16.347,0,0,1,9.045,2.479,16.656,16.656,0,0,1,5.98,6.784,21.908,21.908,0,0,1,2.127,9.832A22.073,22.073,0,0,1,117.1-8.342a16.9,16.9,0,0,1-5.846,6.834A15.343,15.343,0,0,1,102.51,1ZM84.688,16.08V-36.18h8.04v24.79h1.139V16.08ZM101.036-7.1a7.575,7.575,0,0,0,4.824-1.474,8.665,8.665,0,0,0,2.781-3.97,16.175,16.175,0,0,0,.9-5.544,15.553,15.553,0,0,0-.938-5.511,8.742,8.742,0,0,0-2.9-3.987,8.04,8.04,0,0,0-5.008-1.491A7.271,7.271,0,0,0,96.095-27.7a7.77,7.77,0,0,0-2.563,3.852,18.7,18.7,0,0,0-.8,5.762,18.7,18.7,0,0,0,.8,5.762,7.589,7.589,0,0,0,2.63,3.852A7.914,7.914,0,0,0,101.036-7.1Zm28.81,23.182,6.968-19.162.134,5.628L121.2-36.18h9.447l10.586,27.4h-2.144l10.519-27.4h9.112L138.288,16.08ZM20.636,68a17.839,17.839,0,0,1-9.648-2.512,16.584,16.584,0,0,1-6.164-6.834A21.638,21.638,0,0,1,2.68,48.91a21.111,21.111,0,0,1,2.228-9.816,16.859,16.859,0,0,1,6.281-6.8,18,18,0,0,1,9.581-2.479,17.465,17.465,0,0,1,10.737,3.233,14.385,14.385,0,0,1,5.544,8.827l-9.112,2.412a8.31,8.31,0,0,0-2.8-4.389,7.079,7.079,0,0,0-4.506-1.575,7.628,7.628,0,0,0-4.724,1.39A8.054,8.054,0,0,0,13.2,43.5a15.757,15.757,0,0,0-.871,5.41,12.88,12.88,0,0,0,2.094,7.655A7.143,7.143,0,0,0,20.636,59.5a6.923,6.923,0,0,0,4.69-1.407,8.518,8.518,0,0,0,2.412-4.02l9.313,1.943a15.5,15.5,0,0,1-5.829,8.878A17.528,17.528,0,0,1,20.636,68Zm38.391,0a18.417,18.417,0,0,1-9.581-2.445,16.975,16.975,0,0,1-6.415-6.75,20.723,20.723,0,0,1-2.295-9.9,20.505,20.505,0,0,1,2.345-9.966,17.091,17.091,0,0,1,6.465-6.717,18.417,18.417,0,0,1,9.48-2.412,18.506,18.506,0,0,1,9.6,2.445,17.057,17.057,0,0,1,6.449,6.75,20.6,20.6,0,0,1,2.312,9.9,20.553,20.553,0,0,1-2.328,9.933,17.056,17.056,0,0,1-6.465,6.733A18.539,18.539,0,0,1,59.027,68Zm0-8.509q4.388,0,6.549-2.965a12.619,12.619,0,0,0,2.161-7.621A12.4,12.4,0,0,0,65.543,41.2a7.678,7.678,0,0,0-6.516-2.881,8.323,8.323,0,0,0-4.891,1.34,7.888,7.888,0,0,0-2.831,3.719,15.25,15.25,0,0,0-.921,5.528,12.388,12.388,0,0,0,2.194,7.722A7.623,7.623,0,0,0,59.027,59.5ZM128.305,67V45.627a8.364,8.364,0,0,0-1.692-5.578,5.8,5.8,0,0,0-4.673-1.993,6.084,6.084,0,0,0-3.316.888,6,6,0,0,0-2.194,2.479,8.17,8.17,0,0,0-.787,3.668l-3.819-2.546a12.124,12.124,0,0,1,6.482-11,13.7,13.7,0,0,1,6.583-1.591q6.2,0,9.363,3.668a14.17,14.17,0,0,1,3.166,9.6V67ZM84.688,67V30.82h8.04V42.813h1.139V67Zm21.842,0V45.627a8.364,8.364,0,0,0-1.692-5.578,6.395,6.395,0,0,0-9.246-.034,7.4,7.4,0,0,0-1.725,5.075l-3.819-2.68a11.677,11.677,0,0,1,1.775-6.365A12.815,12.815,0,0,1,96.6,31.59a13.753,13.753,0,0,1,6.717-1.642,12.409,12.409,0,0,1,6.985,1.809,10.836,10.836,0,0,1,4.037,4.824,16.506,16.506,0,0,1,1.306,6.633V67Zm83.147,0V45.627a8.364,8.364,0,0,0-1.692-5.578,5.8,5.8,0,0,0-4.673-1.993,6.084,6.084,0,0,0-3.316.888,6,6,0,0,0-2.194,2.479,8.17,8.17,0,0,0-.787,3.668L173.2,42.545a12.124,12.124,0,0,1,6.482-11,13.7,13.7,0,0,1,6.583-1.591q6.2,0,9.363,3.668a14.17,14.17,0,0,1,3.166,9.6V67ZM146.06,67V30.82h8.04V42.813h1.139V67ZM167.9,67V45.627a8.364,8.364,0,0,0-1.692-5.578,6.395,6.395,0,0,0-9.246-.034,7.4,7.4,0,0,0-1.725,5.075l-3.819-2.68a11.676,11.676,0,0,1,1.775-6.365,12.815,12.815,0,0,1,4.774-4.455,13.753,13.753,0,0,1,6.717-1.642,12.409,12.409,0,0,1,6.985,1.809,10.836,10.836,0,0,1,4.037,4.824,16.506,16.506,0,0,1,1.306,6.633V67Zm49.647,1a13.435,13.435,0,0,1-6.583-1.491,10.188,10.188,0,0,1-4.087-3.987,11.132,11.132,0,0,1-1.39-5.511,13.106,13.106,0,0,1,.771-4.59,9.393,9.393,0,0,1,2.5-3.668A13.788,13.788,0,0,1,213.4,46.1a33.716,33.716,0,0,1,4.79-1.307q2.781-.569,6.3-1.089t7.738-1.156l-3.283,1.809a6.361,6.361,0,0,0-1.541-4.723q-1.541-1.508-5.159-1.507a10.264,10.264,0,0,0-4.188.971A5.6,5.6,0,0,0,215,42.545l-8.241-2.613a13.98,13.98,0,0,1,5.159-7.3q3.785-2.814,10.318-2.814a22.957,22.957,0,0,1,8.509,1.474,10.623,10.623,0,0,1,5.628,5.092,10.8,10.8,0,0,1,1.273,4.02q.2,2.01.2,4.489V67h-7.973V59.563l1.139,1.541A17.2,17.2,0,0,1,225.3,66.38,16.462,16.462,0,0,1,217.549,68Zm1.943-7.169a9.186,9.186,0,0,0,4.238-.888,9.444,9.444,0,0,0,2.747-2.027,8.817,8.817,0,0,0,1.39-1.91,9.188,9.188,0,0,0,.821-3.434q.117-1.96.117-3.266l2.68.67q-4.053.67-6.566,1.122t-4.053.821a23.647,23.647,0,0,0-2.714.8,9.391,9.391,0,0,0-2.161,1.156,4.122,4.122,0,0,0-1.206,1.357,3.489,3.489,0,0,0-.385,1.641,3.622,3.622,0,0,0,.62,2.127,3.879,3.879,0,0,0,1.759,1.357A7.109,7.109,0,0,0,219.492,60.836ZM271.216,67V49.915q0-1.239-.134-3.166a14.234,14.234,0,0,0-.837-3.869,7.381,7.381,0,0,0-2.295-3.249,6.922,6.922,0,0,0-4.506-1.307,9.5,9.5,0,0,0-2.513.368,6.21,6.21,0,0,0-2.512,1.424,7.643,7.643,0,0,0-1.926,3.1,16.043,16.043,0,0,0-.754,5.427l-5.226-2.479a18.859,18.859,0,0,1,1.742-8.04,14.42,14.42,0,0,1,5.243-6.064,15.7,15.7,0,0,1,8.827-2.312,14.6,14.6,0,0,1,6.935,1.441,11.429,11.429,0,0,1,4.171,3.652,15.2,15.2,0,0,1,2.127,4.606,23.315,23.315,0,0,1,.771,4.372q.134,1.977.134,2.881V67Zm-24.723,0V30.82H254.6V42.813h1.139V67Zm56.682,1a15.343,15.343,0,0,1-8.743-2.512,16.9,16.9,0,0,1-5.846-6.834,22.072,22.072,0,0,1-2.094-9.749,21.908,21.908,0,0,1,2.127-9.832,16.656,16.656,0,0,1,5.98-6.784,16.347,16.347,0,0,1,9.045-2.479,14.542,14.542,0,0,1,8.677,2.512,15.562,15.562,0,0,1,5.326,6.834,25.032,25.032,0,0,1,1.809,9.749,24.83,24.83,0,0,1-1.826,9.749A14.685,14.685,0,0,1,303.175,68Zm1.474-8.107a7.914,7.914,0,0,0,4.874-1.374,7.589,7.589,0,0,0,2.63-3.853,18.7,18.7,0,0,0,.8-5.762,18.7,18.7,0,0,0-.8-5.762A7.77,7.77,0,0,0,309.59,39.3a7.271,7.271,0,0,0-4.606-1.374,8.04,8.04,0,0,0-5.008,1.491,8.742,8.742,0,0,0-2.9,3.986,15.553,15.553,0,0,0-.938,5.511,16.175,16.175,0,0,0,.9,5.544,8.665,8.665,0,0,0,2.78,3.97A7.575,7.575,0,0,0,304.649,59.9Zm8.308,7.1V42.21h-1.139V18.76H321V67Zm31.557,1q-6.834,0-11.038-3.1a12.925,12.925,0,0,1-5.109-8.76l9.313-1.407a6.529,6.529,0,0,0,2.529,3.987,8.18,8.18,0,0,0,4.975,1.44A6.518,6.518,0,0,0,349,59.211a3.085,3.085,0,0,0,1.34-2.663,2.634,2.634,0,0,0-.536-1.725,5.59,5.59,0,0,0-2.4-1.29q-1.859-.637-5.779-1.675a32.8,32.8,0,0,1-7.069-2.546,9.454,9.454,0,0,1-3.819-3.367,9.072,9.072,0,0,1-1.173-4.74,10.352,10.352,0,0,1,1.776-6.047,11.381,11.381,0,0,1,5.008-3.953,19.188,19.188,0,0,1,7.621-1.39,20.271,20.271,0,0,1,7.537,1.306,13.112,13.112,0,0,1,5.31,3.719,11.1,11.1,0,0,1,2.5,5.695l-9.313,1.675a4.522,4.522,0,0,0-1.742-3.183,7.474,7.474,0,0,0-4.087-1.373,7.335,7.335,0,0,0-4.037.67,2.628,2.628,0,0,0-1.524,2.412,2.111,2.111,0,0,0,.653,1.575,7.541,7.541,0,0,0,2.714,1.306q2.06.67,6.281,1.742a27.547,27.547,0,0,1,6.616,2.5,9.393,9.393,0,0,1,3.635,3.417,9.541,9.541,0,0,1,1.139,4.807,10.542,10.542,0,0,1-4.02,8.744Q351.616,68.005,344.514,68Z" transform="translate(532 704)" fill="#21e7b8"/>
    <rect id="Retângulo_2" data-name="Retângulo 2" width="200" height="200" rx="43" transform="translate(292 612)" fill="rgba(255,255,255,0.12)"/>
    <line id="Linha_4" data-name="Linha 4" x2="66.102" y2="66.102" transform="translate(327.169 648.017)" fill="none" stroke="#21e7b8" stroke-width="13"/>
    <line id="Linha_6" data-name="Linha 6" x2="61.864" transform="translate(389.034 771.746)" fill="none" stroke="#21e7b8" stroke-width="13"/>
  </g>
</svg>
